<?xml version="1.0" encoding="UTF-8"?>
<svg id="Layer_1" data-name="Layer 1" xmlns="http://www.w3.org/2000/svg" viewBox="0 0 2258.59 2568.61">
  <defs>
    <style>
      .cls-1 {
        fill: #222;
      }
    </style>
  </defs>
  <path class="cls-1" d="M2102.51,556.49c85.84,48.73,156.07,169.35,156.07,268.06v926.93c0,98.71-2.94,181.38-6.53,183.72-3.59,2.34-6.62,4.26-6.73,4.26s-68.1,43.73-151.08,97.18l-242.97,156.5c-82.98,53.45-175.99,109.83-175.99,109.83v-1138.79c0-98.71-70.27-219.28-156.15-267.93l-797.37-451.75c-85.88-48.66-152.18-90.47-147.33-92.92s76.26-48.89,158.68-103.2l232.81-153.39C1048.36,40.69,1118.84-2.02,1122.55.07c3.71,2.1,76.97,43.7,162.8,92.45l233.89,132.83c85.83,48.75,226.29,128.5,312.13,177.22l271.15,153.91Z"/>
  <path class="cls-1" d="M739.27,1083.72c-85.8-48.79-164.38-93.46-174.62-99.26-10.24-5.8-88.85-50.42-174.68-99.16l-233.9-132.81C70.23,703.76,0,744.64,0,843.35v972.28c0,98.71,70.23,219.34,156.06,268.08l233.9,132.81c85.84,48.74,164.44,93.45,174.68,99.36,10.24,5.91,88.85,50.62,174.68,99.36l233.9,132.81c85.84,48.74,156.06,7.85,156.06-90.85v-972.22c0-98.71-70.2-219.39-156.01-268.18l-234.02-133.07Z"/>
</svg>